<?xml version="1.0" encoding="UTF-8" standalone="no"?>
<!DOCTYPE svg PUBLIC "-//W3C//DTD SVG 1.1//EN" "http://www.w3.org/Graphics/SVG/1.1/DTD/svg11.dtd">
<svg width="100%" height="100%" viewBox="0 0 554 114" version="1.1" xmlns="http://www.w3.org/2000/svg" xmlns:xlink="http://www.w3.org/1999/xlink" xml:space="preserve" xmlns:serif="http://www.serif.com/" style="fill-rule:evenodd;clip-rule:evenodd;stroke-linejoin:round;stroke-miterlimit:2;">
    <g transform="matrix(1,0,0,1,-71.8754,-211.491)">
        <g transform="matrix(72,0,0,72,213.977,288.183)">
            <path d="M0.289,0.004C0.242,0.004 0.199,-0.003 0.16,-0.018C0.12,-0.032 0.089,-0.05 0.067,-0.072C0.057,-0.083 0.053,-0.095 0.055,-0.109C0.056,-0.122 0.063,-0.133 0.074,-0.142C0.087,-0.153 0.101,-0.157 0.114,-0.156C0.127,-0.154 0.138,-0.148 0.147,-0.138C0.158,-0.125 0.177,-0.114 0.202,-0.102C0.227,-0.092 0.254,-0.086 0.285,-0.086C0.324,-0.086 0.353,-0.092 0.374,-0.105C0.394,-0.118 0.404,-0.134 0.405,-0.154C0.406,-0.174 0.396,-0.191 0.377,-0.206C0.357,-0.221 0.321,-0.233 0.269,-0.242C0.202,-0.255 0.153,-0.275 0.123,-0.302C0.092,-0.329 0.077,-0.361 0.077,-0.4C0.077,-0.434 0.087,-0.462 0.107,-0.485C0.127,-0.507 0.153,-0.524 0.184,-0.535C0.215,-0.546 0.248,-0.551 0.282,-0.551C0.326,-0.551 0.365,-0.544 0.399,-0.53C0.433,-0.516 0.46,-0.497 0.48,-0.472C0.489,-0.461 0.494,-0.45 0.493,-0.439C0.492,-0.427 0.487,-0.417 0.476,-0.409C0.465,-0.402 0.453,-0.399 0.438,-0.402C0.423,-0.405 0.411,-0.411 0.401,-0.42C0.384,-0.436 0.366,-0.447 0.347,-0.453C0.328,-0.459 0.305,-0.462 0.28,-0.462C0.251,-0.462 0.226,-0.457 0.205,-0.447C0.185,-0.437 0.175,-0.422 0.175,-0.403C0.175,-0.391 0.178,-0.38 0.185,-0.371C0.191,-0.361 0.203,-0.352 0.222,-0.344C0.241,-0.337 0.268,-0.329 0.304,-0.322C0.354,-0.312 0.394,-0.299 0.423,-0.284C0.452,-0.269 0.472,-0.251 0.485,-0.231C0.498,-0.21 0.504,-0.187 0.504,-0.16C0.504,-0.129 0.496,-0.102 0.48,-0.077C0.463,-0.052 0.439,-0.033 0.407,-0.018C0.376,-0.003 0.336,0.004 0.289,0.004Z" style="fill:white;fill-rule:nonzero;"/>
        </g>
        <g transform="matrix(72,0,0,72,253.073,288.183)">
            <path d="M0.141,0.234C0.126,0.234 0.114,0.229 0.105,0.219C0.095,0.21 0.09,0.198 0.09,0.183L0.09,-0.273C0.091,-0.326 0.103,-0.373 0.127,-0.415C0.151,-0.457 0.184,-0.49 0.225,-0.515C0.266,-0.539 0.313,-0.551 0.365,-0.551C0.418,-0.551 0.465,-0.539 0.506,-0.515C0.547,-0.49 0.58,-0.457 0.605,-0.415C0.629,-0.373 0.641,-0.326 0.641,-0.273C0.641,-0.22 0.63,-0.173 0.608,-0.132C0.585,-0.09 0.555,-0.057 0.516,-0.033C0.477,-0.008 0.434,0.004 0.385,0.004C0.346,0.004 0.31,-0.004 0.277,-0.021C0.244,-0.037 0.215,-0.059 0.192,-0.087L0.192,0.183C0.192,0.198 0.187,0.21 0.178,0.219C0.169,0.229 0.156,0.234 0.141,0.234ZM0.365,-0.086C0.399,-0.086 0.429,-0.094 0.456,-0.111C0.483,-0.127 0.504,-0.149 0.52,-0.178C0.535,-0.206 0.543,-0.238 0.543,-0.273C0.543,-0.309 0.535,-0.341 0.52,-0.37C0.504,-0.398 0.483,-0.42 0.456,-0.437C0.429,-0.453 0.399,-0.461 0.365,-0.461C0.332,-0.461 0.302,-0.453 0.275,-0.437C0.248,-0.42 0.226,-0.398 0.211,-0.37C0.196,-0.341 0.188,-0.309 0.188,-0.273C0.188,-0.238 0.196,-0.206 0.211,-0.178C0.226,-0.149 0.248,-0.127 0.275,-0.111C0.302,-0.094 0.332,-0.086 0.365,-0.086Z" style="fill:white;fill-rule:nonzero;"/>
        </g>
        <g transform="matrix(72,0,0,72,303.689,288.183)">
            <path d="M0.318,0.004C0.269,0.004 0.226,-0.008 0.187,-0.033C0.148,-0.057 0.118,-0.09 0.096,-0.132C0.073,-0.173 0.062,-0.22 0.062,-0.273C0.062,-0.326 0.074,-0.373 0.099,-0.415C0.123,-0.457 0.156,-0.49 0.198,-0.515C0.239,-0.539 0.286,-0.551 0.338,-0.551C0.39,-0.551 0.437,-0.539 0.478,-0.515C0.519,-0.49 0.552,-0.457 0.577,-0.415C0.601,-0.373 0.613,-0.326 0.613,-0.273L0.574,-0.273C0.574,-0.22 0.563,-0.173 0.541,-0.132C0.518,-0.09 0.488,-0.057 0.449,-0.033C0.41,-0.008 0.367,0.004 0.318,0.004ZM0.338,-0.086C0.372,-0.086 0.402,-0.094 0.429,-0.111C0.456,-0.127 0.477,-0.149 0.492,-0.178C0.507,-0.206 0.515,-0.238 0.515,-0.273C0.515,-0.309 0.507,-0.341 0.492,-0.37C0.477,-0.398 0.456,-0.42 0.429,-0.437C0.402,-0.453 0.372,-0.461 0.338,-0.461C0.305,-0.461 0.275,-0.453 0.248,-0.437C0.221,-0.42 0.199,-0.398 0.184,-0.37C0.168,-0.341 0.16,-0.309 0.16,-0.273C0.16,-0.238 0.168,-0.206 0.184,-0.178C0.199,-0.149 0.221,-0.127 0.248,-0.111C0.275,-0.094 0.305,-0.086 0.338,-0.086ZM0.562,0.001C0.547,0.001 0.535,-0.004 0.526,-0.014C0.516,-0.023 0.511,-0.035 0.511,-0.05L0.511,-0.203L0.53,-0.309L0.613,-0.273L0.613,-0.05C0.613,-0.035 0.608,-0.023 0.599,-0.014C0.589,-0.004 0.577,0.001 0.562,0.001Z" style="fill:white;fill-rule:nonzero;"/>
        </g>
        <g transform="matrix(72,0,0,72,352.289,288.183)">
            <path d="M0.338,0.004C0.285,0.004 0.237,-0.008 0.196,-0.033C0.154,-0.057 0.121,-0.09 0.098,-0.132C0.074,-0.173 0.062,-0.22 0.062,-0.273C0.062,-0.327 0.074,-0.375 0.097,-0.417C0.12,-0.459 0.152,-0.492 0.193,-0.516C0.234,-0.539 0.28,-0.551 0.333,-0.551C0.372,-0.551 0.408,-0.544 0.441,-0.529C0.474,-0.514 0.503,-0.491 0.529,-0.461C0.538,-0.45 0.542,-0.439 0.539,-0.428C0.536,-0.417 0.529,-0.407 0.517,-0.398C0.508,-0.391 0.497,-0.389 0.486,-0.392C0.475,-0.394 0.464,-0.4 0.455,-0.409C0.422,-0.444 0.382,-0.461 0.333,-0.461C0.299,-0.461 0.269,-0.453 0.243,-0.438C0.217,-0.422 0.197,-0.4 0.182,-0.372C0.167,-0.344 0.16,-0.311 0.16,-0.273C0.16,-0.237 0.168,-0.205 0.183,-0.177C0.198,-0.149 0.218,-0.127 0.245,-0.111C0.272,-0.094 0.303,-0.086 0.338,-0.086C0.361,-0.086 0.382,-0.089 0.4,-0.095C0.417,-0.1 0.433,-0.109 0.448,-0.121C0.459,-0.13 0.47,-0.135 0.481,-0.136C0.492,-0.137 0.502,-0.133 0.511,-0.126C0.522,-0.117 0.529,-0.106 0.53,-0.095C0.531,-0.083 0.527,-0.072 0.518,-0.063C0.47,-0.018 0.41,0.004 0.338,0.004Z" style="fill:white;fill-rule:nonzero;"/>
        </g>
        <g transform="matrix(72,0,0,72,395.561,288.183)">
            <path d="M0.347,0.004C0.292,0.004 0.243,-0.008 0.2,-0.032C0.157,-0.055 0.123,-0.088 0.099,-0.13C0.074,-0.171 0.062,-0.219 0.062,-0.273C0.062,-0.328 0.074,-0.376 0.097,-0.418C0.119,-0.459 0.151,-0.492 0.192,-0.516C0.233,-0.539 0.279,-0.551 0.332,-0.551C0.384,-0.551 0.429,-0.54 0.466,-0.517C0.503,-0.494 0.532,-0.462 0.552,-0.422C0.571,-0.381 0.581,-0.335 0.581,-0.282C0.581,-0.269 0.577,-0.259 0.568,-0.251C0.559,-0.242 0.548,-0.238 0.535,-0.238L0.132,-0.238L0.132,-0.318L0.532,-0.318L0.491,-0.29C0.49,-0.323 0.484,-0.353 0.471,-0.38C0.458,-0.406 0.44,-0.427 0.417,-0.442C0.394,-0.457 0.365,-0.465 0.332,-0.465C0.294,-0.465 0.262,-0.457 0.234,-0.44C0.207,-0.423 0.187,-0.401 0.173,-0.372C0.159,-0.343 0.152,-0.31 0.152,-0.273C0.152,-0.236 0.16,-0.204 0.177,-0.175C0.194,-0.146 0.217,-0.124 0.246,-0.107C0.275,-0.09 0.309,-0.082 0.347,-0.082C0.368,-0.082 0.389,-0.086 0.41,-0.094C0.432,-0.101 0.45,-0.11 0.463,-0.12C0.473,-0.127 0.484,-0.131 0.496,-0.132C0.507,-0.132 0.517,-0.128 0.526,-0.121C0.537,-0.111 0.543,-0.1 0.544,-0.088C0.545,-0.076 0.539,-0.066 0.528,-0.057C0.505,-0.039 0.477,-0.024 0.444,-0.013C0.41,-0.002 0.378,0.004 0.347,0.004Z" style="fill:white;fill-rule:nonzero;"/>
        </g>
        <g transform="matrix(72,0,0,72,440.273,288.183)">
            <path d="M0.365,0.004C0.313,0.004 0.266,-0.008 0.225,-0.033C0.184,-0.057 0.151,-0.09 0.127,-0.132C0.103,-0.174 0.091,-0.221 0.09,-0.274L0.09,-0.73C0.09,-0.745 0.095,-0.758 0.105,-0.767C0.114,-0.776 0.126,-0.781 0.141,-0.781C0.156,-0.781 0.169,-0.776 0.178,-0.767C0.187,-0.758 0.192,-0.745 0.192,-0.73L0.192,-0.46C0.215,-0.488 0.244,-0.51 0.277,-0.527C0.31,-0.543 0.346,-0.551 0.385,-0.551C0.434,-0.551 0.477,-0.539 0.516,-0.515C0.555,-0.49 0.585,-0.457 0.608,-0.416C0.63,-0.374 0.641,-0.327 0.641,-0.274C0.641,-0.221 0.629,-0.174 0.605,-0.132C0.58,-0.09 0.547,-0.057 0.506,-0.033C0.465,-0.008 0.418,0.004 0.365,0.004ZM0.365,-0.086C0.399,-0.086 0.429,-0.094 0.456,-0.111C0.483,-0.127 0.504,-0.149 0.52,-0.178C0.535,-0.207 0.543,-0.239 0.543,-0.274C0.543,-0.31 0.535,-0.342 0.52,-0.37C0.504,-0.398 0.483,-0.42 0.456,-0.437C0.429,-0.453 0.399,-0.461 0.365,-0.461C0.332,-0.461 0.302,-0.453 0.275,-0.437C0.248,-0.42 0.226,-0.398 0.211,-0.37C0.196,-0.342 0.188,-0.31 0.188,-0.274C0.188,-0.239 0.196,-0.207 0.211,-0.178C0.226,-0.149 0.248,-0.127 0.275,-0.111C0.302,-0.094 0.332,-0.086 0.365,-0.086Z" style="fill:white;fill-rule:nonzero;"/>
        </g>
        <g transform="matrix(72,0,0,72,490.889,288.183)">
            <path d="M0.318,0.004C0.269,0.004 0.226,-0.008 0.187,-0.033C0.148,-0.057 0.118,-0.09 0.096,-0.132C0.073,-0.173 0.062,-0.22 0.062,-0.273C0.062,-0.326 0.074,-0.373 0.099,-0.415C0.123,-0.457 0.156,-0.49 0.198,-0.515C0.239,-0.539 0.286,-0.551 0.338,-0.551C0.39,-0.551 0.437,-0.539 0.478,-0.515C0.519,-0.49 0.552,-0.457 0.577,-0.415C0.601,-0.373 0.613,-0.326 0.613,-0.273L0.574,-0.273C0.574,-0.22 0.563,-0.173 0.541,-0.132C0.518,-0.09 0.488,-0.057 0.449,-0.033C0.41,-0.008 0.367,0.004 0.318,0.004ZM0.338,-0.086C0.372,-0.086 0.402,-0.094 0.429,-0.111C0.456,-0.127 0.477,-0.149 0.492,-0.178C0.507,-0.206 0.515,-0.238 0.515,-0.273C0.515,-0.309 0.507,-0.341 0.492,-0.37C0.477,-0.398 0.456,-0.42 0.429,-0.437C0.402,-0.453 0.372,-0.461 0.338,-0.461C0.305,-0.461 0.275,-0.453 0.248,-0.437C0.221,-0.42 0.199,-0.398 0.184,-0.37C0.168,-0.341 0.16,-0.309 0.16,-0.273C0.16,-0.238 0.168,-0.206 0.184,-0.178C0.199,-0.149 0.221,-0.127 0.248,-0.111C0.275,-0.094 0.305,-0.086 0.338,-0.086ZM0.562,0.001C0.547,0.001 0.535,-0.004 0.526,-0.014C0.516,-0.023 0.511,-0.035 0.511,-0.05L0.511,-0.203L0.53,-0.309L0.613,-0.273L0.613,-0.05C0.613,-0.035 0.608,-0.023 0.599,-0.014C0.589,-0.004 0.577,0.001 0.562,0.001Z" style="fill:white;fill-rule:nonzero;"/>
        </g>
        <g transform="matrix(72,0,0,72,539.489,288.183)">
            <path d="M0.552,0.001C0.537,0.001 0.525,-0.004 0.516,-0.014C0.506,-0.023 0.501,-0.035 0.501,-0.05L0.501,-0.296C0.501,-0.334 0.494,-0.365 0.48,-0.389C0.466,-0.413 0.447,-0.431 0.424,-0.443C0.4,-0.454 0.373,-0.46 0.342,-0.46C0.314,-0.46 0.289,-0.454 0.266,-0.443C0.243,-0.432 0.225,-0.417 0.212,-0.398C0.199,-0.379 0.192,-0.357 0.192,-0.332L0.129,-0.332C0.129,-0.374 0.139,-0.411 0.16,-0.445C0.18,-0.477 0.208,-0.504 0.243,-0.523C0.278,-0.542 0.318,-0.552 0.362,-0.552C0.408,-0.552 0.449,-0.542 0.486,-0.523C0.522,-0.503 0.551,-0.474 0.572,-0.436C0.593,-0.398 0.603,-0.351 0.603,-0.296L0.603,-0.05C0.603,-0.035 0.598,-0.023 0.589,-0.014C0.579,-0.004 0.567,0.001 0.552,0.001ZM0.141,0.001C0.126,0.001 0.114,-0.004 0.105,-0.014C0.095,-0.023 0.09,-0.035 0.09,-0.05L0.09,-0.496C0.09,-0.511 0.095,-0.524 0.105,-0.533C0.114,-0.542 0.126,-0.547 0.141,-0.547C0.156,-0.547 0.169,-0.542 0.178,-0.533C0.187,-0.524 0.192,-0.511 0.192,-0.496L0.192,-0.05C0.192,-0.035 0.187,-0.023 0.178,-0.014C0.169,-0.004 0.156,0.001 0.141,0.001Z" style="fill:white;fill-rule:nonzero;"/>
        </g>
        <g transform="matrix(72,0,0,72,588.593,288.183)">
            <path d="M0.186,-0.2L0.124,-0.268L0.431,-0.542C0.441,-0.551 0.452,-0.556 0.465,-0.555C0.477,-0.554 0.487,-0.549 0.496,-0.539C0.505,-0.529 0.51,-0.518 0.509,-0.506C0.508,-0.494 0.503,-0.483 0.493,-0.474L0.186,-0.2ZM0.139,-0C0.124,-0 0.113,-0.005 0.103,-0.014C0.095,-0.023 0.09,-0.034 0.09,-0.049L0.09,-0.732C0.09,-0.747 0.095,-0.758 0.103,-0.768C0.113,-0.777 0.124,-0.781 0.139,-0.781C0.154,-0.781 0.166,-0.777 0.174,-0.768C0.184,-0.758 0.188,-0.747 0.188,-0.732L0.188,-0.049C0.188,-0.034 0.184,-0.023 0.174,-0.014C0.166,-0.005 0.154,-0 0.139,-0ZM0.496,-0.005C0.485,0.004 0.473,0.007 0.461,0.006C0.448,0.005 0.437,-0 0.428,-0.011L0.225,-0.262L0.295,-0.328L0.503,-0.072C0.512,-0.061 0.516,-0.05 0.515,-0.038C0.514,-0.025 0.507,-0.014 0.496,-0.005Z" style="fill:white;fill-rule:nonzero;"/>
        </g>
    </g>
    <path d="M57,0C88.459,0 114,25.541 114,57C114,88.459 88.459,114 57,114C25.541,114 0,88.459 0,57C0,25.541 25.541,0 57,0ZM31.633,21.205C51.474,6.505 79.616,10.446 94.439,30C109.262,49.554 96.235,65.554 76.394,80.254C56.553,94.955 37.363,102.823 22.54,83.269C7.718,63.715 11.792,35.905 31.633,21.205Z" style="fill:white;"/>
    <g transform="matrix(0.920815,0,0,0.920815,-0.159504,0.821266)">
        <path d="M89.15,48.672C87.915,46.838 86.58,45.08 85.151,43.404C87.942,40.989 91.192,39.091 94.751,37.859C96.244,39.202 97.667,40.62 99.014,42.109C95.413,43.826 92.095,46.043 89.15,48.672Z" style="fill:white;"/>
        <path d="M79.97,38.058C71.415,30.288 60.533,25.038 48.5,23.482C50.955,23.164 53.458,23 56,23C67.537,23 78.291,26.376 87.331,32.194C84.345,33.399 81.792,35.454 79.97,38.058Z" style="fill:white;"/>
    </g>
</svg>
